<?xml version="1.0" encoding="UTF-8" standalone="no"?>
<!-- Created with Inkscape (http://www.inkscape.org/) -->

<svg
   width="100mm"
   height="148.424mm"
   viewBox="0 0 100 148.424"
   version="1.1"
   id="svg1"
   inkscape:version="1.4.2 (f4327f4, 2025-05-13)"
   sodipodi:docname="flag_g.svg"
   xmlns:inkscape="http://www.inkscape.org/namespaces/inkscape"
   xmlns:sodipodi="http://sodipodi.sourceforge.net/DTD/sodipodi-0.dtd"
   xmlns="http://www.w3.org/2000/svg"
   xmlns:svg="http://www.w3.org/2000/svg">
  <sodipodi:namedview
     id="namedview1"
     pagecolor="#ffffff"
     bordercolor="#000000"
     borderopacity="0.25"
     inkscape:showpageshadow="2"
     inkscape:pageopacity="0.0"
     inkscape:pagecheckerboard="0"
     inkscape:deskcolor="#d1d1d1"
     inkscape:document-units="mm"
     inkscape:zoom="2.2378227"
     inkscape:cx="207.56783"
     inkscape:cy="224.77205"
     inkscape:window-width="2560"
     inkscape:window-height="1560"
     inkscape:window-x="-12"
     inkscape:window-y="-12"
     inkscape:window-maximized="1"
     inkscape:current-layer="svg1" />
  <defs
     id="defs1">
    <inkscape:path-effect
       effect="fillet_chamfer"
       id="path-effect2"
       is_visible="true"
       lpeversion="1"
       nodesatellites_param="F,0,0,1,0,5,0,1 @ F,0,0,1,0,5,0,1 @ F,0,0,1,0,5,0,1 @ F,0,0,1,0,5,0,1 @ F,0,0,1,0,5,0,1"
       radius="0"
       unit="px"
       method="auto"
       mode="F"
       chamfer_steps="1"
       flexible="false"
       use_knot_distance="true"
       apply_no_radius="true"
       apply_with_radius="true"
       only_selected="false"
       hide_knots="false" />
  </defs>
  <g
     inkscape:label="Shape"
     inkscape:groupmode="layer"
     id="layer1"
     style="fill:#ee6258;fill-opacity:1">
    <path
       style="fill:#ee6258;stroke-width:0;fill-opacity:1"
       d="m 0,5 v 105 a 9.6032778,9.6032778 62.49601 0 0 4.0961596,7.86731 L 45.90384,147.13269 a 7.1428571,7.1428571 0 0 0 8.19232,0 L 95.90384,117.86731 A 9.6032778,9.6032778 117.50399 0 0 100,110 V 5 A 5,5 45 0 0 95,0 H 5 A 5,5 135 0 0 0,5 Z"
       id="path2"
       sodipodi:nodetypes="cccccc"
       inkscape:path-effect="#path-effect2"
       inkscape:original-d="m 0,0 v 115 l 50,35 50,-35 V 0 Z"
       inkscape:label="Flag" />
  </g>
  <path
     style="font-size:88.1944px;line-height:0;font-family:Bitcount;-inkscape-font-specification:Bitcount;text-align:center;text-anchor:middle;fill:#f1f2f6;stroke-width:0"
     d="m 32.537509,100.58219 -0.08819,0.0882 h -0.08819 q -0.79375,0 -1.499305,-0.26458 -0.617361,-0.17639 -1.146527,-0.61736 -0.529167,-0.352777 -0.970139,-0.881944 -0.352777,-0.529166 -0.61736,-1.234721 -0.176389,-0.617361 -0.176389,-1.411111 v -0.08819 l 0.08819,-0.08819 h 4.497914 v 0 q 0,0 0,0 0,0 0,0 0,0 0,0 0,0 0,0 0,0 0,0 v 0 z m -0.352777,0 v -4.497914 0 q 0,0 0,0 0,0 0,0 0,0 0,0 0,0 0,0 0,0 0,0 v 0 h 4.497914 l 0.08819,0.08819 v 0.08819 q 0,0.79375 -0.264583,1.411111 -0.176389,0.705555 -0.617361,1.234721 -0.352777,0.529167 -0.881944,0.881944 -0.529166,0.44097 -1.234721,0.61736 -0.617361,0.26458 -1.41111,0.26458 h -0.08819 z m 0,-8.643051 0.08819,-0.08819 h 0.08819 q 0.793749,0 1.41111,0.176388 0.705555,0.264584 1.234721,0.617361 0.529167,0.440972 0.881944,0.970138 0.440972,0.529167 0.617361,1.146528 0.264583,0.705555 0.264583,1.499304 v 0.08819 l -0.08819,0.08819 h -4.497914 v 0 q 0,0 0,0 0,0 0,0 0,0 0,0 0,0 0,0 0,0 0,0 v 0 z m 0.352777,0 v 4.497914 0 q 0,0 0,0 0,0 0,0 0,0 0,0 0,0 0,0 0,0 0,0 v 0 h -4.497914 l -0.08819,-0.08819 v -0.08819 q 0,-0.793749 0.176389,-1.499304 0.264583,-0.617361 0.61736,-1.146528 0.440972,-0.529166 0.970139,-0.970138 0.529166,-0.352777 1.146527,-0.617361 0.705555,-0.176388 1.499305,-0.176388 h 0.08819 z m 0,-17.815268 -0.08819,0.08819 h -0.08819 q -0.79375,0 -1.499305,-0.176389 -0.617361,-0.264583 -1.146527,-0.61736 -0.529167,-0.440972 -0.970139,-0.970139 -0.352777,-0.529166 -0.61736,-1.146527 -0.176389,-0.705555 -0.176389,-1.499305 v -0.08819 l 0.08819,-0.08819 h 4.497914 v 0 q 0,0 0,0 0,0 0,0 0,0 0,0 0,0 0,0 0,0 0,0 v 0 z m -0.352777,0 v -4.497915 0 q 0,0 0,0 0,0 0,0 0,0 0,0 0,0 0,0 0,0 0,0 v 0 h 4.497914 l 0.08819,0.08819 v 0.08819 q 0,0.79375 -0.264583,1.499305 -0.176389,0.617361 -0.617361,1.146527 -0.352777,0.529167 -0.881944,0.970139 -0.529166,0.352777 -1.234721,0.61736 -0.617361,0.176389 -1.41111,0.176389 h -0.08819 z m 0,-8.643051 0.08819,-0.08819 h 0.08819 q 0.793749,0 1.41111,0.264584 0.705555,0.176388 1.234721,0.61736 0.529167,0.352778 0.881944,0.881944 0.440972,0.529167 0.617361,1.234722 0.264583,0.617361 0.264583,1.41111 v 0.08819 l -0.08819,0.08819 h -4.497914 v 0 q 0,0 0,0 0,0 0,0 0,0 0,0 0,0 0,0 0,0 0,0 v 0 z m 0.352777,0 v 4.497914 0 q 0,0 0,0 0,0 0,0 0,0 0,0 0,0 0,0 0,0 0,0 v 0 h -4.497914 l -0.08819,-0.08819 v -0.08819 q 0,-0.793749 0.176389,-1.41111 0.264583,-0.705555 0.61736,-1.234722 0.440972,-0.529166 0.970139,-0.881944 0.529166,-0.440972 1.146527,-0.61736 0.705555,-0.264584 1.499305,-0.264584 h 0.08819 z m 0,-0.176389 -0.08819,0.08819 h -0.08819 q -0.79375,0 -1.499305,-0.176388 -0.617361,-0.264584 -1.146527,-0.617361 -0.529167,-0.440972 -0.970139,-0.970139 -0.352777,-0.529166 -0.61736,-1.146527 -0.176389,-0.705555 -0.176389,-1.499304 v -0.08819 l 0.08819,-0.08819 h 4.497914 v 0 q 0,0 0,0 0,0 0,0 0,0 0,0 0,0 0,0 0,0 0,0 v 0 z m -0.352777,0 v -4.497914 0 q 0,0 0,0 0,0 0,0 0,0 0,0 0,0 0,0 0,0 0,0 v 0 h 4.497914 l 0.08819,0.08819 v 0.08819 q 0,0.793749 -0.264583,1.499304 -0.176389,0.617361 -0.617361,1.146527 -0.352777,0.529167 -0.881944,0.970139 -0.529166,0.352777 -1.234721,0.617361 -0.617361,0.176388 -1.41111,0.176388 h -0.08819 z m 0,-8.643051 0.08819,-0.08819 h 0.08819 q 0.793749,0 1.41111,0.264583 0.705555,0.176389 1.234721,0.617361 0.529167,0.352777 0.881944,0.881944 0.440972,0.529166 0.617361,1.234721 0.264583,0.617361 0.264583,1.411111 v 0.08819 l -0.08819,0.08819 h -4.497914 v 0 q 0,0 0,0 0,0 0,0 0,0 0,0 0,0 0,0 0,0 0,0 v 0 z m 0.352777,0 v 4.497914 0 q 0,0 0,0 0,0 0,0 0,0 0,0 0,0 0,0 0,0 0,0 v 0 h -4.497914 l -0.08819,-0.08819 v -0.08819 q 0,-0.79375 0.176389,-1.411111 0.264583,-0.705555 0.61736,-1.234721 0.440972,-0.529167 0.970139,-0.881944 0.529166,-0.440972 1.146527,-0.617361 0.705555,-0.264583 1.499305,-0.264583 h 0.08819 z m 8.81944,43.92081 -0.08819,0.0882 h -0.08819 q -0.793749,0 -1.499304,-0.26458 -0.617361,-0.17639 -1.146528,-0.61736 Q 38.005562,99.435663 37.56459,98.906496 37.211812,98.37733 36.947229,97.671775 36.77084,97.054414 36.77084,96.260664 v -0.08819 l 0.08819,-0.08819 h 4.497914 v 0 q 0,0 0,0 0,0 0,0 0,0 0,0 0,0 0,0 0,0 0,0 v 0 z m -0.352778,0 v -4.497914 0 q 0,0 0,0 0,0 0,0 0,0 0,0 0,0 0,0 0,0 0,0 v 0 h 4.497915 l 0.08819,0.08819 v 0.08819 q 0,0.79375 -0.264583,1.411111 -0.176389,0.705555 -0.617361,1.234721 -0.352777,0.529167 -0.881944,0.881944 -0.529166,0.44097 -1.234721,0.61736 -0.617361,0.26458 -1.411111,0.26458 h -0.08819 z m 0,-8.643051 0.08819,-0.08819 h 0.08819 q 0.79375,0 1.411111,0.176388 0.705555,0.264584 1.234721,0.617361 0.529167,0.440972 0.881944,0.970138 0.440972,0.529167 0.617361,1.146528 0.264583,0.705555 0.264583,1.499304 v 0.08819 l -0.08819,0.08819 h -4.497915 v 0 q 0,0 0,0 0,0 0,0 0,0 0,0 0,0 0,0 0,0 0,0 v 0 z m 0.352778,0 v 4.497914 0 q 0,0 0,0 0,0 0,0 0,0 0,0 0,0 0,0 0,0 0,0 v 0 h -4.497914 l -0.08819,-0.08819 v -0.08819 q 0,-0.793749 0.176389,-1.499304 0.264583,-0.617361 0.617361,-1.146528 0.440972,-0.529166 0.970138,-0.970138 0.529167,-0.352777 1.146528,-0.617361 0.705555,-0.176388 1.499304,-0.176388 h 0.08819 z m 0,-8.995829 -0.08819,0.08819 h -0.08819 q -0.793749,0 -1.499304,-0.176389 Q 39.063895,82.590533 38.534728,82.237755 38.005562,81.796783 37.56459,81.267617 37.211812,80.738451 36.947229,80.12109 36.77084,79.415535 36.77084,78.621785 v -0.08819 l 0.08819,-0.08819 h 4.497914 v 0 q 0,0 0,0 0,0 0,0 0,0 0,0 0,0 0,0 0,0 0,0 v 0 z m -0.352778,0 v -4.497914 0 q 0,0 0,0 0,0 0,0 0,0 0,0 0,0 0,0 0,0 0,0 v 0 h 4.497915 l 0.08819,0.08819 v 0.08819 q 0,0.79375 -0.264583,1.499305 -0.176389,0.617361 -0.617361,1.146527 -0.352777,0.529166 -0.881944,0.970138 -0.529166,0.352778 -1.234721,0.617361 -0.617361,0.176389 -1.411111,0.176389 h -0.08819 z m 0,-8.64305 0.08819,-0.08819 h 0.08819 q 0.79375,0 1.411111,0.264583 0.705555,0.176389 1.234721,0.617361 0.529167,0.352778 0.881944,0.881944 0.440972,0.529166 0.617361,1.234722 0.264583,0.61736 0.264583,1.41111 v 0.08819 l -0.08819,0.08819 h -4.497915 v 0 q 0,0 0,0 0,0 0,0 0,0 0,0 0,0 0,0 0,0 0,0 v 0 z m 0.352778,0 v 4.497914 0 q 0,0 0,0 0,0 0,0 0,0 0,0 0,0 0,0 0,0 0,0 v 0 h -4.497914 l -0.08819,-0.08819 v -0.08819 q 0,-0.79375 0.176389,-1.41111 0.264583,-0.705556 0.617361,-1.234722 0.440972,-0.529166 0.970138,-0.881944 0.529167,-0.440972 1.146528,-0.617361 0.705555,-0.264583 1.499304,-0.264583 h 0.08819 z m 0,-0.176389 -0.08819,0.08819 h -0.08819 q -0.793749,0 -1.499304,-0.176389 -0.617361,-0.264583 -1.146528,-0.61736 Q 38.005562,72.977344 37.56459,72.448177 37.211812,71.919011 36.947229,71.30165 36.77084,70.596095 36.77084,69.802345 v -0.08819 l 0.08819,-0.08819 h 4.497914 v 0 q 0,0 0,0 0,0 0,0 0,0 0,0 0,0 0,0 0,0 0,0 v 0 z m -0.352778,0 v -4.497915 0 q 0,0 0,0 0,0 0,0 0,0 0,0 0,0 0,0 0,0 0,0 v 0 h 4.497915 l 0.08819,0.08819 v 0.08819 q 0,0.79375 -0.264583,1.499305 -0.176389,0.617361 -0.617361,1.146527 -0.352777,0.529167 -0.881944,0.970139 -0.529166,0.352777 -1.234721,0.61736 -0.617361,0.176389 -1.411111,0.176389 h -0.08819 z m 0,-8.643051 0.08819,-0.08819 h 0.08819 q 0.79375,0 1.411111,0.264584 0.705555,0.176388 1.234721,0.61736 0.529167,0.352778 0.881944,0.881944 0.440972,0.529167 0.617361,1.234722 0.264583,0.617361 0.264583,1.41111 v 0.08819 l -0.08819,0.08819 h -4.497915 v 0 q 0,0 0,0 0,0 0,0 0,0 0,0 0,0 0,0 0,0 0,0 v 0 z m 0.352778,0 v 4.497914 0 q 0,0 0,0 0,0 0,0 0,0 0,0 0,0 0,0 0,0 0,0 v 0 h -4.497914 l -0.08819,-0.08819 v -0.08819 q 0,-0.793749 0.176389,-1.41111 0.264583,-0.705555 0.617361,-1.234722 0.440972,-0.529166 0.970138,-0.881944 0.529167,-0.440972 1.146528,-0.61736 0.705555,-0.264584 1.499304,-0.264584 h 0.08819 z m 0,-8.995829 -0.08819,0.08819 h -0.08819 q -0.793749,0 -1.499304,-0.176389 Q 39.063895,56.132214 38.534728,55.779436 38.005562,55.338464 37.56459,54.809298 37.211812,54.280131 36.947229,53.662771 36.77084,52.957215 36.77084,52.163466 v -0.08819 l 0.08819,-0.08819 h 4.497914 v 0 q 0,0 0,0 0,0 0,0 0,0 0,0 0,0 0,0 0,0 0,0 v 0 z m -0.352778,0 v -4.497914 0 q 0,0 0,0 0,0 0,0 0,0 0,0 0,0 0,0 0,0 0,0 v 0 h 4.497915 l 0.08819,0.08819 v 0.08819 q 0,0.793749 -0.264583,1.499305 -0.176389,0.61736 -0.617361,1.146527 -0.352777,0.529166 -0.881944,0.970138 -0.529166,0.352778 -1.234721,0.617361 -0.617361,0.176389 -1.411111,0.176389 h -0.08819 z m 0,-8.643051 0.08819,-0.08819 h 0.08819 q 0.79375,0 1.411111,0.264583 0.705555,0.176389 1.234721,0.617361 0.529167,0.352778 0.881944,0.881944 0.440972,0.529166 0.617361,1.234722 0.264583,0.61736 0.264583,1.41111 v 0.08819 l -0.08819,0.08819 h -4.497915 v 0 q 0,0 0,0 0,0 0,0 0,0 0,0 0,0 0,0 0,0 0,0 v 0 z m 0.352778,0 v 4.497915 0 q 0,0 0,0 0,0 0,0 0,0 0,0 0,0 0,0 0,0 0,0 v 0 h -4.497914 l -0.08819,-0.08819 v -0.08819 q 0,-0.79375 0.176389,-1.41111 0.264583,-0.705556 0.617361,-1.234722 0.440972,-0.529166 0.970138,-0.881944 0.529167,-0.440972 1.146528,-0.617361 0.705555,-0.264583 1.499304,-0.264583 h 0.08819 z m 8.81944,52.74025 -0.08819,0.0882 H 50 q -0.79375,0 -1.499305,-0.26458 -0.617361,-0.17639 -1.146527,-0.61736 Q 46.825002,99.435663 46.38403,98.906496 46.031252,98.37733 45.766669,97.671775 45.59028,97.054414 45.59028,96.260664 v -0.08819 l 0.08819,-0.08819 h 4.497914 v 0 q 0,0 0,0 0,0 0,0 0,0 0,0 0,0 0,0 0,0 0,0 v 0 z m -0.352778,0 v -4.497914 0 q 0,0 0,0 0,0 0,0 0,0 0,0 0,0 0,0 0,0 0,0 v 0 h 4.497914 l 0.08819,0.08819 v 0.08819 q 0,0.79375 -0.264583,1.411111 -0.176389,0.705555 -0.617361,1.234721 -0.352778,0.529167 -0.881944,0.881944 -0.529167,0.44097 -1.234722,0.61736 -0.61736,0.26458 -1.41111,0.26458 h -0.08819 z m 0,-8.643051 0.08819,-0.08819 H 50 q 0.79375,0 1.41111,0.176388 0.705555,0.264584 1.234722,0.617361 0.529166,0.440972 0.881944,0.970138 0.440972,0.529167 0.617361,1.146528 0.264583,0.705555 0.264583,1.499304 v 0.08819 l -0.08819,0.08819 h -4.497914 v 0 q 0,0 0,0 0,0 0,0 0,0 0,0 0,0 0,0 0,0 0,0 v 0 z m 0.352778,0 v 4.497914 0 q 0,0 0,0 0,0 0,0 0,0 0,0 0,0 0,0 0,0 0,0 v 0 h -4.497914 l -0.08819,-0.08819 v -0.08819 q 0,-0.793749 0.176389,-1.499304 0.264583,-0.617361 0.617361,-1.146528 0.440972,-0.529166 0.970138,-0.970138 0.529166,-0.352777 1.146527,-0.617361 Q 49.20625,91.850945 50,91.850945 h 0.08819 z m 0,-8.995829 -0.08819,0.08819 H 50 q -0.79375,0 -1.499305,-0.176389 Q 47.883334,82.590533 47.354168,82.237755 46.825002,81.796783 46.38403,81.267617 46.031252,80.738451 45.766669,80.12109 45.59028,79.415535 45.59028,78.621785 v -0.08819 l 0.08819,-0.08819 h 4.497914 v 0 q 0,0 0,0 0,0 0,0 0,0 0,0 0,0 0,0 0,0 0,0 v 0 z m -0.352778,0 v -4.497914 0 q 0,0 0,0 0,0 0,0 0,0 0,0 0,0 0,0 0,0 0,0 v 0 h 4.497914 l 0.08819,0.08819 v 0.08819 q 0,0.79375 -0.264583,1.499305 -0.176389,0.617361 -0.617361,1.146527 -0.352778,0.529166 -0.881944,0.970138 -0.529167,0.352778 -1.234722,0.617361 Q 50.79375,83.031505 50,83.031505 h -0.08819 z m 0,-8.64305 0.08819,-0.08819 H 50 q 0.79375,0 1.41111,0.264583 0.705555,0.176389 1.234722,0.617361 0.529166,0.352778 0.881944,0.881944 0.440972,0.529166 0.617361,1.234722 0.264583,0.61736 0.264583,1.41111 v 0.08819 l -0.08819,0.08819 h -4.497914 v 0 q 0,0 0,0 0,0 0,0 0,0 0,0 0,0 0,0 0,0 0,0 v 0 z m 0.352778,0 v 4.497914 0 q 0,0 0,0 0,0 0,0 0,0 0,0 0,0 0,0 0,0 0,0 v 0 h -4.497914 l -0.08819,-0.08819 v -0.08819 q 0,-0.79375 0.176389,-1.41111 0.264583,-0.705556 0.617361,-1.234722 0.440972,-0.529166 0.970138,-0.881944 0.529166,-0.440972 1.146527,-0.617361 Q 49.20625,74.212065 50,74.212065 h 0.08819 z m 0,-17.815269 -0.08819,0.08819 H 50 q -0.79375,0 -1.499305,-0.176389 Q 47.883334,56.132214 47.354168,55.779436 46.825002,55.338464 46.38403,54.809298 46.031252,54.280131 45.766669,53.662771 45.59028,52.957215 45.59028,52.163466 v -0.08819 l 0.08819,-0.08819 h 4.497914 v 0 q 0,0 0,0 0,0 0,0 0,0 0,0 0,0 0,0 0,0 0,0 v 0 z m -0.352778,0 v -4.497914 0 q 0,0 0,0 0,0 0,0 0,0 0,0 0,0 0,0 0,0 0,0 v 0 h 4.497914 l 0.08819,0.08819 v 0.08819 q 0,0.793749 -0.264583,1.499305 -0.176389,0.61736 -0.617361,1.146527 -0.352778,0.529166 -0.881944,0.970138 -0.529167,0.352778 -1.234722,0.617361 Q 50.79375,56.573186 50,56.573186 h -0.08819 z m 0,-8.643051 0.08819,-0.08819 H 50 q 0.79375,0 1.41111,0.264583 0.705555,0.176389 1.234722,0.617361 0.529166,0.352778 0.881944,0.881944 0.440972,0.529166 0.617361,1.234722 0.264583,0.61736 0.264583,1.41111 v 0.08819 l -0.08819,0.08819 h -4.497914 v 0 q 0,0 0,0 0,0 0,0 0,0 0,0 0,0 0,0 0,0 0,0 v 0 z m 0.352778,0 v 4.497915 0 q 0,0 0,0 0,0 0,0 0,0 0,0 0,0 0,0 0,0 0,0 v 0 h -4.497914 l -0.08819,-0.08819 v -0.08819 q 0,-0.79375 0.176389,-1.41111 0.264583,-0.705556 0.617361,-1.234722 0.440972,-0.529166 0.970138,-0.881944 0.529166,-0.440972 1.146527,-0.617361 Q 49.20625,47.753746 50,47.753746 h 0.08819 z m 8.819439,52.74025 -0.08819,0.0882 h -0.08819 q -0.79375,0 -1.499305,-0.26458 -0.617361,-0.17639 -1.146527,-0.61736 -0.529167,-0.352777 -0.970139,-0.881944 -0.352777,-0.529166 -0.61736,-1.234721 -0.176389,-0.617361 -0.176389,-1.411111 v -0.08819 l 0.08819,-0.08819 h 4.497914 v 0 q 0,0 0,0 0,0 0,0 0,0 0,0 0,0 0,0 0,0 0,0 v 0 z m -0.352777,0 v -4.497914 0 q 0,0 0,0 0,0 0,0 0,0 0,0 0,0 0,0 0,0 0,0 v 0 h 4.497914 l 0.08819,0.08819 v 0.08819 q 0,0.79375 -0.264584,1.411111 -0.176388,0.705555 -0.61736,1.234721 -0.352778,0.529167 -0.881944,0.881944 -0.529167,0.44097 -1.234722,0.61736 -0.617361,0.26458 -1.41111,0.26458 h -0.08819 z m 0,-8.643051 0.08819,-0.08819 h 0.08819 q 0.793749,0 1.41111,0.176388 0.705555,0.264584 1.234722,0.617361 0.529166,0.440972 0.881944,0.970138 0.440972,0.529167 0.61736,1.146528 0.264584,0.705555 0.264584,1.499304 v 0.08819 l -0.08819,0.08819 h -4.497914 v 0 q 0,0 0,0 0,0 0,0 0,0 0,0 0,0 0,0 0,0 0,0 v 0 z m 0.352777,0 v 4.497914 0 q 0,0 0,0 0,0 0,0 0,0 0,0 0,0 0,0 0,0 0,0 v 0 h -4.497914 l -0.08819,-0.08819 v -0.08819 q 0,-0.793749 0.176389,-1.499304 0.264583,-0.617361 0.61736,-1.146528 0.440972,-0.529166 0.970139,-0.970138 0.529166,-0.352777 1.146527,-0.617361 0.705555,-0.176388 1.499305,-0.176388 h 0.08819 z m 0,-0.176389 -0.08819,0.08819 h -0.08819 q -0.79375,0 -1.499305,-0.176389 -0.617361,-0.264583 -1.146527,-0.617361 -0.529167,-0.440972 -0.970139,-0.970138 -0.352777,-0.529167 -0.61736,-1.146528 -0.176389,-0.705555 -0.176389,-1.499304 v -0.08819 l 0.08819,-0.08819 h 4.497914 v 0 q 0,0 0,0 0,0 0,0 0,0 0,0 0,0 0,0 0,0 0,0 v 0 z m -0.352777,0 v -4.497914 0 q 0,0 0,0 0,0 0,0 0,0 0,0 0,0 0,0 0,0 0,0 v 0 h 4.497914 l 0.08819,0.08819 v 0.08819 q 0,0.793749 -0.264584,1.499304 -0.176388,0.617361 -0.61736,1.146528 -0.352778,0.529166 -0.881944,0.970138 -0.529167,0.352778 -1.234722,0.617361 -0.617361,0.176389 -1.41111,0.176389 h -0.08819 z m 0,-8.643051 0.08819,-0.08819 h 0.08819 q 0.793749,0 1.41111,0.264583 0.705555,0.176389 1.234722,0.617361 0.529166,0.352777 0.881944,0.881944 0.440972,0.529166 0.61736,1.234721 0.264584,0.617361 0.264584,1.411111 v 0.08819 l -0.08819,0.08819 h -4.497914 v 0 q 0,0 0,0 0,0 0,0 0,0 0,0 0,0 0,0 0,0 0,0 v 0 z m 0.352777,0 v 4.497914 0 q 0,0 0,0 0,0 0,0 0,0 0,0 0,0 0,0 0,0 0,0 v 0 h -4.497914 l -0.08819,-0.08819 v -0.08819 q 0,-0.79375 0.176389,-1.411111 0.264583,-0.705555 0.61736,-1.234721 0.440972,-0.529167 0.970139,-0.881944 0.529166,-0.440972 1.146527,-0.617361 0.705555,-0.264583 1.499305,-0.264583 h 0.08819 z m 0,-0.176389 -0.08819,0.08819 h -0.08819 q -0.79375,0 -1.499305,-0.176389 -0.617361,-0.264583 -1.146527,-0.617361 -0.529167,-0.440972 -0.970139,-0.970138 -0.352777,-0.529166 -0.61736,-1.146527 -0.176389,-0.705555 -0.176389,-1.499305 v -0.08819 l 0.08819,-0.08819 h 4.497914 v 0 q 0,0 0,0 0,0 0,0 0,0 0,0 0,0 0,0 0,0 0,0 v 0 z m -0.352777,0 v -4.497914 0 q 0,0 0,0 0,0 0,0 0,0 0,0 0,0 0,0 0,0 0,0 v 0 h 4.497914 l 0.08819,0.08819 v 0.08819 q 0,0.79375 -0.264584,1.499305 -0.176388,0.617361 -0.61736,1.146527 -0.352778,0.529166 -0.881944,0.970138 -0.529167,0.352778 -1.234722,0.617361 -0.617361,0.176389 -1.41111,0.176389 h -0.08819 z m 0,-8.64305 0.08819,-0.08819 h 0.08819 q 0.793749,0 1.41111,0.264583 0.705555,0.176389 1.234722,0.617361 0.529166,0.352778 0.881944,0.881944 0.440972,0.529166 0.61736,1.234722 0.264584,0.61736 0.264584,1.41111 v 0.08819 l -0.08819,0.08819 h -4.497914 v 0 q 0,0 0,0 0,0 0,0 0,0 0,0 0,0 0,0 0,0 0,0 v 0 z m 0.352777,0 v 4.497914 0 q 0,0 0,0 0,0 0,0 0,0 0,0 0,0 0,0 0,0 0,0 v 0 h -4.497914 l -0.08819,-0.08819 v -0.08819 q 0,-0.79375 0.176389,-1.41111 0.264583,-0.705556 0.61736,-1.234722 0.440972,-0.529166 0.970139,-0.881944 0.529166,-0.440972 1.146527,-0.617361 0.705555,-0.264583 1.499305,-0.264583 h 0.08819 z m 0,-0.176389 -0.08819,0.08819 h -0.08819 q -0.79375,0 -1.499305,-0.176389 -0.617361,-0.264583 -1.146527,-0.61736 -0.529167,-0.440972 -0.970139,-0.970139 -0.352777,-0.529166 -0.61736,-1.146527 -0.176389,-0.705555 -0.176389,-1.499305 v -0.08819 l 0.08819,-0.08819 h 4.497914 v 0 q 0,0 0,0 0,0 0,0 0,0 0,0 0,0 0,0 0,0 0,0 v 0 z m -0.352777,0 v -4.497915 0 q 0,0 0,0 0,0 0,0 0,0 0,0 0,0 0,0 0,0 0,0 v 0 h 4.497914 l 0.08819,0.08819 v 0.08819 q 0,0.79375 -0.264584,1.499305 -0.176388,0.617361 -0.61736,1.146527 -0.352778,0.529167 -0.881944,0.970139 -0.529167,0.352777 -1.234722,0.61736 -0.617361,0.176389 -1.41111,0.176389 h -0.08819 z m 0,-8.643051 0.08819,-0.08819 h 0.08819 q 0.793749,0 1.41111,0.264584 0.705555,0.176388 1.234722,0.61736 0.529166,0.352778 0.881944,0.881944 0.440972,0.529167 0.61736,1.234722 0.264584,0.617361 0.264584,1.41111 v 0.08819 l -0.08819,0.08819 h -4.497914 v 0 q 0,0 0,0 0,0 0,0 0,0 0,0 0,0 0,0 0,0 0,0 v 0 z m 0.352777,0 v 4.497914 0 q 0,0 0,0 0,0 0,0 0,0 0,0 0,0 0,0 0,0 0,0 v 0 h -4.497914 l -0.08819,-0.08819 v -0.08819 q 0,-0.793749 0.176389,-1.41111 0.264583,-0.705555 0.61736,-1.234722 0.440972,-0.529166 0.970139,-0.881944 0.529166,-0.440972 1.146527,-0.61736 0.705555,-0.264584 1.499305,-0.264584 h 0.08819 z m 0,-0.176389 -0.08819,0.08819 h -0.08819 q -0.79375,0 -1.499305,-0.176388 -0.617361,-0.264584 -1.146527,-0.617361 -0.529167,-0.440972 -0.970139,-0.970139 -0.352777,-0.529166 -0.61736,-1.146527 -0.176389,-0.705555 -0.176389,-1.499304 v -0.08819 l 0.08819,-0.08819 h 4.497914 v 0 q 0,0 0,0 0,0 0,0 0,0 0,0 0,0 0,0 0,0 0,0 v 0 z m -0.352777,0 v -4.497914 0 q 0,0 0,0 0,0 0,0 0,0 0,0 0,0 0,0 0,0 0,0 v 0 h 4.497914 l 0.08819,0.08819 v 0.08819 q 0,0.793749 -0.264584,1.499304 -0.176388,0.617361 -0.61736,1.146527 -0.352778,0.529167 -0.881944,0.970139 -0.529167,0.352777 -1.234722,0.617361 -0.617361,0.176388 -1.41111,0.176388 h -0.08819 z m 0,-8.643051 0.08819,-0.08819 h 0.08819 q 0.793749,0 1.41111,0.264583 0.705555,0.176389 1.234722,0.617361 0.529166,0.352777 0.881944,0.881944 0.440972,0.529166 0.61736,1.234721 0.264584,0.617361 0.264584,1.411111 v 0.08819 l -0.08819,0.08819 h -4.497914 v 0 q 0,0 0,0 0,0 0,0 0,0 0,0 0,0 0,0 0,0 0,0 v 0 z m 0.352777,0 v 4.497914 0 q 0,0 0,0 0,0 0,0 0,0 0,0 0,0 0,0 0,0 0,0 v 0 H 54.497914 L 54.40972,61.0711 v -0.08819 q 0,-0.79375 0.176389,-1.411111 0.264583,-0.705555 0.61736,-1.234721 0.440972,-0.529167 0.970139,-0.881944 0.529166,-0.440972 1.146527,-0.617361 0.705555,-0.264583 1.499305,-0.264583 h 0.08819 z m 0,-0.176389 -0.08819,0.08819 h -0.08819 q -0.79375,0 -1.499305,-0.176389 -0.617361,-0.264583 -1.146527,-0.617361 -0.529167,-0.440972 -0.970139,-0.970138 -0.352777,-0.529167 -0.61736,-1.146527 -0.176389,-0.705556 -0.176389,-1.499305 v -0.08819 l 0.08819,-0.08819 h 4.497914 v 0 q 0,0 0,0 0,0 0,0 0,0 0,0 0,0 0,0 0,0 0,0 v 0 z m -0.352777,0 v -4.497914 0 q 0,0 0,0 0,0 0,0 0,0 0,0 0,0 0,0 0,0 0,0 v 0 h 4.497914 l 0.08819,0.08819 v 0.08819 q 0,0.793749 -0.264584,1.499305 -0.176388,0.61736 -0.61736,1.146527 -0.352778,0.529166 -0.881944,0.970138 -0.529167,0.352778 -1.234722,0.617361 -0.617361,0.176389 -1.41111,0.176389 h -0.08819 z m 0,-8.643051 0.08819,-0.08819 h 0.08819 q 0.793749,0 1.41111,0.264583 0.705555,0.176389 1.234722,0.617361 0.529166,0.352778 0.881944,0.881944 0.440972,0.529166 0.61736,1.234722 0.264584,0.61736 0.264584,1.41111 v 0.08819 l -0.08819,0.08819 h -4.497914 v 0 q 0,0 0,0 0,0 0,0 0,0 0,0 0,0 0,0 0,0 0,0 v 0 z m 0.352777,0 v 4.497915 0 q 0,0 0,0 0,0 0,0 0,0 0,0 0,0 0,0 0,0 0,0 v 0 h -4.497914 l -0.08819,-0.08819 v -0.08819 q 0,-0.79375 0.176389,-1.41111 0.264583,-0.705556 0.61736,-1.234722 0.440972,-0.529166 0.970139,-0.881944 0.529166,-0.440972 1.146527,-0.617361 0.705555,-0.264583 1.499305,-0.264583 h 0.08819 z m 8.81944,43.92081 -0.08819,0.08819 h -0.08819 q -0.793749,0 -1.499304,-0.176389 Q 65.522214,91.409973 64.993047,91.057195 64.463881,90.616223 64.022909,90.087057 63.670131,89.55789 63.405548,88.940529 63.22916,88.234974 63.22916,87.441225 v -0.08819 l 0.08819,-0.08819 h 4.497914 v 0 q 0,0 0,0 0,0 0,0 0,0 0,0 0,0 0,0 0,0 0,0 v 0 z m -0.352777,0 v -4.497914 0 q 0,0 0,0 0,0 0,0 0,0 0,0 0,0 0,0 0,0 0,0 v 0 h 4.497914 l 0.08819,0.08819 v 0.08819 q 0,0.793749 -0.264583,1.499304 -0.176389,0.617361 -0.617361,1.146528 -0.352777,0.529166 -0.881944,0.970138 -0.529166,0.352778 -1.234721,0.617361 -0.617361,0.176389 -1.411111,0.176389 h -0.08819 z m 0,-8.643051 0.08819,-0.08819 h 0.08819 q 0.79375,0 1.411111,0.264583 0.705555,0.176389 1.234721,0.617361 0.529167,0.352777 0.881944,0.881944 0.440972,0.529166 0.617361,1.234721 0.264583,0.617361 0.264583,1.411111 v 0.08819 l -0.08819,0.08819 h -4.497914 v 0 q 0,0 0,0 0,0 0,0 0,0 0,0 0,0 0,0 0,0 0,0 v 0 z m 0.352777,0 v 4.497914 0 q 0,0 0,0 0,0 0,0 0,0 0,0 0,0 0,0 0,0 0,0 v 0 h -4.497914 l -0.08819,-0.08819 v -0.08819 q 0,-0.79375 0.176388,-1.411111 0.264583,-0.705555 0.617361,-1.234721 0.440972,-0.529167 0.970138,-0.881944 0.529167,-0.440972 1.146528,-0.617361 0.705555,-0.264583 1.499304,-0.264583 h 0.08819 z m 0,-0.176389 -0.08819,0.08819 h -0.08819 q -0.793749,0 -1.499304,-0.176389 Q 65.522214,82.590533 64.993047,82.237755 64.463881,81.796783 64.022909,81.267617 63.670131,80.738451 63.405548,80.12109 63.22916,79.415535 63.22916,78.621785 v -0.08819 l 0.08819,-0.08819 h 4.497914 v 0 q 0,0 0,0 0,0 0,0 0,0 0,0 0,0 0,0 0,0 0,0 v 0 z m -0.352777,0 v -4.497914 0 q 0,0 0,0 0,0 0,0 0,0 0,0 0,0 0,0 0,0 0,0 v 0 h 4.497914 l 0.08819,0.08819 v 0.08819 q 0,0.79375 -0.264583,1.499305 -0.176389,0.617361 -0.617361,1.146527 -0.352777,0.529166 -0.881944,0.970138 -0.529166,0.352778 -1.234721,0.617361 -0.617361,0.176389 -1.411111,0.176389 h -0.08819 z m 0,-8.64305 0.08819,-0.08819 h 0.08819 q 0.79375,0 1.411111,0.264583 0.705555,0.176389 1.234721,0.617361 0.529167,0.352778 0.881944,0.881944 0.440972,0.529166 0.617361,1.234722 0.264583,0.61736 0.264583,1.41111 v 0.08819 l -0.08819,0.08819 h -4.497914 v 0 q 0,0 0,0 0,0 0,0 0,0 0,0 0,0 0,0 0,0 0,0 v 0 z m 0.352777,0 v 4.497914 0 q 0,0 0,0 0,0 0,0 0,0 0,0 0,0 0,0 0,0 0,0 v 0 h -4.497914 l -0.08819,-0.08819 v -0.08819 q 0,-0.79375 0.176388,-1.41111 0.264583,-0.705556 0.617361,-1.234722 0.440972,-0.529166 0.970138,-0.881944 0.529167,-0.440972 1.146528,-0.617361 0.705555,-0.264583 1.499304,-0.264583 h 0.08819 z m 0,-0.176389 -0.08819,0.08819 h -0.08819 q -0.793749,0 -1.499304,-0.176389 -0.617361,-0.264583 -1.146528,-0.61736 Q 64.463881,72.977344 64.022909,72.448177 63.670131,71.919011 63.405548,71.30165 63.22916,70.596095 63.22916,69.802345 v -0.08819 l 0.08819,-0.08819 h 4.497914 v 0 q 0,0 0,0 0,0 0,0 0,0 0,0 0,0 0,0 0,0 0,0 v 0 z m -0.352777,0 v -4.497915 0 q 0,0 0,0 0,0 0,0 0,0 0,0 0,0 0,0 0,0 0,0 v 0 h 4.497914 l 0.08819,0.08819 v 0.08819 q 0,0.79375 -0.264583,1.499305 -0.176389,0.617361 -0.617361,1.146527 -0.352777,0.529167 -0.881944,0.970139 -0.529166,0.352777 -1.234721,0.61736 -0.617361,0.176389 -1.411111,0.176389 h -0.08819 z m 0,-8.643051 0.08819,-0.08819 h 0.08819 q 0.79375,0 1.411111,0.264584 0.705555,0.176388 1.234721,0.61736 0.529167,0.352778 0.881944,0.881944 0.440972,0.529167 0.617361,1.234722 0.264583,0.617361 0.264583,1.41111 v 0.08819 l -0.08819,0.08819 h -4.497914 v 0 q 0,0 0,0 0,0 0,0 0,0 0,0 0,0 0,0 0,0 0,0 v 0 z m 0.352777,0 v 4.497914 0 q 0,0 0,0 0,0 0,0 0,0 0,0 0,0 0,0 0,0 0,0 v 0 h -4.497914 l -0.08819,-0.08819 v -0.08819 q 0,-0.793749 0.176388,-1.41111 0.264583,-0.705555 0.617361,-1.234722 0.440972,-0.529166 0.970138,-0.881944 0.529167,-0.440972 1.146528,-0.61736 0.705555,-0.264584 1.499304,-0.264584 h 0.08819 z m 0,-0.176389 -0.08819,0.08819 h -0.08819 q -0.793749,0 -1.499304,-0.176388 Q 65.522214,64.951653 64.993047,64.598876 64.463881,64.157904 64.022909,63.628737 63.670131,63.099571 63.405548,62.48221 63.22916,61.776655 63.22916,60.982906 v -0.08819 l 0.08819,-0.08819 h 4.497914 v 0 q 0,0 0,0 0,0 0,0 0,0 0,0 0,0 0,0 0,0 0,0 v 0 z m -0.352777,0 v -4.497914 0 q 0,0 0,0 0,0 0,0 0,0 0,0 0,0 0,0 0,0 0,0 v 0 h 4.497914 l 0.08819,0.08819 v 0.08819 q 0,0.793749 -0.264583,1.499304 -0.176389,0.617361 -0.617361,1.146527 -0.352777,0.529167 -0.881944,0.970139 -0.529166,0.352777 -1.234721,0.617361 -0.617361,0.176388 -1.411111,0.176388 h -0.08819 z m 0,-8.643051 0.08819,-0.08819 h 0.08819 q 0.79375,0 1.411111,0.264583 0.705555,0.176389 1.234721,0.617361 0.529167,0.352777 0.881944,0.881944 0.440972,0.529166 0.617361,1.234721 0.264583,0.617361 0.264583,1.411111 v 0.08819 l -0.08819,0.08819 h -4.497914 v 0 q 0,0 0,0 0,0 0,0 0,0 0,0 0,0 0,0 0,0 0,0 v 0 z m 0.352777,0 v 4.497914 0 q 0,0 0,0 0,0 0,0 0,0 0,0 0,0 0,0 0,0 0,0 v 0 H 63.317354 L 63.22916,61.0711 v -0.08819 q 0,-0.79375 0.176388,-1.411111 0.264583,-0.705555 0.617361,-1.234721 0.440972,-0.529167 0.970138,-0.881944 0.529167,-0.440972 1.146528,-0.617361 0.705555,-0.264583 1.499304,-0.264583 h 0.08819 z m 0,-0.176389 -0.08819,0.08819 h -0.08819 q -0.793749,0 -1.499304,-0.176389 -0.617361,-0.264583 -1.146528,-0.617361 -0.529166,-0.440972 -0.970138,-0.970138 -0.352778,-0.529167 -0.617361,-1.146527 -0.176388,-0.705556 -0.176388,-1.499305 v -0.08819 l 0.08819,-0.08819 h 4.497914 v 0 q 0,0 0,0 0,0 0,0 0,0 0,0 0,0 0,0 0,0 0,0 v 0 z m -0.352777,0 v -4.497914 0 q 0,0 0,0 0,0 0,0 0,0 0,0 0,0 0,0 0,0 0,0 v 0 h 4.497914 l 0.08819,0.08819 v 0.08819 q 0,0.793749 -0.264583,1.499305 -0.176389,0.61736 -0.617361,1.146527 -0.352777,0.529166 -0.881944,0.970138 -0.529166,0.352778 -1.234721,0.617361 -0.617361,0.176389 -1.411111,0.176389 h -0.08819 z m 0,-8.643051 0.08819,-0.08819 h 0.08819 q 0.79375,0 1.411111,0.264583 0.705555,0.176389 1.234721,0.617361 0.529167,0.352778 0.881944,0.881944 0.440972,0.529166 0.617361,1.234722 0.264583,0.61736 0.264583,1.41111 v 0.08819 l -0.08819,0.08819 h -4.497914 v 0 q 0,0 0,0 0,0 0,0 0,0 0,0 0,0 0,0 0,0 0,0 v 0 z m 0.352777,0 v 4.497915 0 q 0,0 0,0 0,0 0,0 0,0 0,0 0,0 0,0 0,0 0,0 v 0 h -4.497914 l -0.08819,-0.08819 v -0.08819 q 0,-0.79375 0.176388,-1.41111 0.264583,-0.705556 0.617361,-1.234722 0.440972,-0.529166 0.970138,-0.881944 0.529167,-0.440972 1.146528,-0.617361 0.705555,-0.264583 1.499304,-0.264583 h 0.08819 z"
     id="text2"
     aria-label="g" />
</svg>
