<?xml version="1.0" encoding="UTF-8" standalone="no"?>
<!-- Created with Inkscape (http://www.inkscape.org/) -->

<svg
   width="100mm"
   height="100mm"
   viewBox="0 0 99.999997 99.999997"
   version="1.1"
   id="svg1"
   inkscape:version="1.4.2 (f4327f4, 2025-05-13)"
   sodipodi:docname="icon.svg"
   xmlns:inkscape="http://www.inkscape.org/namespaces/inkscape"
   xmlns:sodipodi="http://sodipodi.sourceforge.net/DTD/sodipodi-0.dtd"
   xmlns="http://www.w3.org/2000/svg"
   xmlns:svg="http://www.w3.org/2000/svg">
  <path
     id="icon"
     fill="rgba(51, 46, 60, 1)"
     d="M 6.236771 -3.2502337 A 1.7320508 1.7320508 0 0 0 5.3707581 -3.0181649 L 0.19062521 -0.02741898 A 1.7320508 1.7320508 0 0 0 -0.67538766 1.4725379 L -0.67538766 7.4540297 A 1.7320508 1.7320508 0 0 0 0.19062521 8.9539867 L 5.3707581 11.944733 A 1.7320508 1.7320508 0 0 0 7.1027839 11.944733 L 12.282917 8.9539867 A 1.7320508 1.7320508 0 0 0 13.14893 7.4540297 L 13.14893 1.4725379 A 1.7320508 1.7320508 0 0 0 12.282917 -0.02741898 L 7.1027839 -3.0181649 A 1.7320508 1.7320508 0 0 0 6.236771 -3.2502337 z M 5.1374138 1.1978979 L 5.1483356 1.1978979 L 5.1591777 1.1978979 L 5.1592574 1.1979777 C 5.2201063 1.199137 5.274519 1.2100431 5.322447 1.2305837 C 5.3804984 1.2450965 5.4313357 1.2704355 5.4748742 1.3067176 C 5.5184127 1.3357432 5.5546682 1.3720784 5.5836938 1.4156169 C 5.6199759 1.4591554 5.6453946 1.509913 5.6599074 1.5679644 C 5.680448 1.6158924 5.6912744 1.6703051 5.6924337 1.731154 L 5.6925135 1.7312337 L 5.6925932 1.731154 C 5.6933637 1.6702909 5.700581 1.6159016 5.7142774 1.5679644 C 5.7360466 1.509913 5.7614653 1.4591554 5.790491 1.4156169 C 5.8267731 1.3720784 5.8666939 1.3357432 5.9102324 1.3067176 C 5.9537709 1.2704355 6.0009429 1.2450965 6.0517378 1.2305837 C 6.1065232 1.2100392 6.1645211 1.1991335 6.2257695 1.1979777 L 6.2258492 1.1978979 L 6.236771 1.1978979 L 6.2476131 1.1978979 L 6.2476928 1.1979777 C 6.3085417 1.199137 6.3629544 1.2100431 6.4108824 1.2305837 C 6.4689337 1.2450965 6.5197711 1.2704355 6.5633096 1.3067176 C 6.6068481 1.3357432 6.6431035 1.3720784 6.6721292 1.4156169 C 6.7084113 1.4591554 6.73383 1.509913 6.7483428 1.5679644 C 6.7688742 1.615871 6.7797017 1.6702583 6.7808691 1.7310742 L 6.7808691 1.731154 L 6.7810286 1.7312337 L 6.7810286 1.731154 C 6.7817991 1.6702909 6.7890961 1.6159016 6.8027925 1.5679644 C 6.8245617 1.509913 6.8499007 1.4591554 6.8789264 1.4156169 C 6.9152085 1.3720784 6.9551293 1.3357432 6.9986678 1.3067176 C 7.0422063 1.2704355 7.0893783 1.2450965 7.1401732 1.2305837 C 7.1949586 1.2100392 7.2529565 1.1991335 7.3142049 1.1979777 L 7.3142846 1.1979777 L 7.3143643 1.1978979 L 7.3252064 1.1978979 L 7.3361282 1.1978979 L 7.3362079 1.1979777 C 7.3970568 1.199137 7.4514695 1.2100431 7.4993975 1.2305837 C 7.5574489 1.2450965 7.6082065 1.2704355 7.651745 1.3067176 C 7.6952835 1.3357432 7.7316187 1.3720784 7.7606443 1.4156169 C 7.7969264 1.4591554 7.8222654 1.509913 7.8367782 1.5679644 C 7.8573188 1.6158924 7.8682249 1.6703051 7.8693842 1.731154 L 7.869464 1.7312337 L 7.8695437 1.731154 C 7.8703142 1.6702909 7.8775315 1.6159016 7.8912279 1.5679644 C 7.9129971 1.509913 7.9384158 1.4591554 7.9674415 1.4156169 C 8.0037236 1.3720784 8.0436444 1.3357432 8.0871829 1.3067176 C 8.1307214 1.2704355 8.1778934 1.2450965 8.2286883 1.2305837 C 8.2834737 1.2100392 8.3414716 1.1991335 8.40272 1.1979777 L 8.4027997 1.1978979 L 8.4137215 1.1978979 L 8.4245636 1.1978979 L 8.4246433 1.1979777 C 8.4854922 1.199137 8.5399049 1.2100431 8.5878329 1.2305837 C 8.6458843 1.2450965 8.6967216 1.2704355 8.7402601 1.3067176 C 8.7837986 1.3357432 8.8200541 1.3720784 8.8490797 1.4156169 C 8.8853618 1.4591554 8.9107805 1.509913 8.9252933 1.5679644 C 8.9458339 1.6158924 8.9566603 1.6703051 8.9578196 1.731154 L 8.9578993 1.7312337 L 8.9578993 1.7421555 L 8.9578993 1.7529976 L 8.9578196 1.7530773 C 8.9566638 1.8143257 8.9458379 1.8724033 8.9252933 1.9271887 C 8.9107805 1.9779836 8.8853618 2.0251556 8.8490797 2.0686941 C 8.8200541 2.1122326 8.7837986 2.1521534 8.7402601 2.1884355 C 8.6967216 2.2174612 8.6458843 2.2428002 8.5878329 2.2645694 C 8.5398957 2.2782658 8.4855064 2.2854831 8.4246433 2.2862536 L 8.4245636 2.2863333 L 8.4246433 2.2864928 L 8.4247231 2.2864928 C 8.485539 2.2876602 8.5399263 2.2984877 8.5878329 2.3190191 C 8.6458843 2.3335319 8.6967216 2.3589506 8.7402601 2.3952327 C 8.7837986 2.4242584 8.8200541 2.4605138 8.8490797 2.5040523 C 8.8853618 2.5475908 8.9107805 2.5983484 8.9252933 2.6563998 C 8.9458339 2.7043278 8.9566603 2.7587405 8.9578196 2.8195894 L 8.9578993 2.8196691 L 8.9578993 2.8305909 L 8.9578993 2.8415127 L 8.9578196 2.8415924 C 8.9566638 2.9028408 8.9458379 2.9608387 8.9252933 3.0156241 C 8.9107805 3.066419 8.8853618 3.113591 8.8490797 3.1571295 C 8.8200541 3.200668 8.7837986 3.2405888 8.7402601 3.2768709 C 8.6967216 3.3058966 8.6458843 3.3313153 8.5878329 3.3530845 C 8.5398957 3.3667809 8.4855064 3.3739982 8.4246433 3.3747687 L 8.4245636 3.3748485 L 8.4246433 3.3749282 C 8.4854922 3.3760875 8.5399049 3.3869139 8.5878329 3.4074545 C 8.6458843 3.4219673 8.6967216 3.447386 8.7402601 3.4836681 C 8.7837986 3.5126937 8.8200541 3.5489492 8.8490797 3.5924877 C 8.8853618 3.6360262 8.9107805 3.6868635 8.9252933 3.7449149 C 8.9458339 3.7928429 8.9566603 3.8472556 8.9578196 3.9081045 L 8.9578993 3.9081842 L 8.9578993 3.9190263 L 8.9578993 3.9299481 L 8.9578196 3.9300278 C 8.9566638 3.9912762 8.9458379 4.0492741 8.9252933 4.1040595 C 8.9107805 4.1548544 8.8853618 4.2020264 8.8490797 4.2455649 C 8.8200541 4.2891034 8.7837986 4.3290242 8.7402601 4.3653063 C 8.6967216 4.394332 8.6458843 4.4197507 8.5878329 4.4415199 C 8.5398957 4.4552163 8.4855064 4.4624336 8.4246433 4.4632041 L 8.4245636 4.4632838 L 8.4246433 4.4633636 C 8.4854922 4.4645229 8.5399049 4.475429 8.5878329 4.4959696 C 8.6458843 4.5104824 8.6967216 4.5358214 8.7402601 4.5721035 C 8.7837986 4.6011291 8.8200541 4.6374643 8.8490797 4.6810028 C 8.8853618 4.7245413 8.9107805 4.7752989 8.9252933 4.8333503 C 8.9458339 4.8812783 8.9566603 4.935691 8.9578196 4.9965399 L 8.9578993 4.9966196 L 8.9578993 5.0075414 L 8.9578993 5.0183835 L 8.9578196 5.0184632 C 8.9566638 5.0797116 8.9458379 5.1377892 8.9252933 5.1925746 C 8.9107805 5.2433695 8.8853618 5.2905415 8.8490797 5.33408 C 8.8200541 5.3776185 8.7837986 5.4175393 8.7402601 5.4538214 C 8.6967216 5.4828471 8.6458843 5.5081861 8.5878329 5.5299553 C 8.5398957 5.5436517 8.4855064 5.550869 8.4246433 5.5516395 L 8.4245636 5.5517192 L 8.4246433 5.5518787 L 8.4247231 5.5518787 C 8.485539 5.5530461 8.5399263 5.5638736 8.5878329 5.584405 C 8.6458843 5.5989178 8.6967216 5.6243365 8.7402601 5.6606186 C 8.7837986 5.6896443 8.8200541 5.7258997 8.8490797 5.7694382 C 8.8853618 5.8129767 8.9107805 5.8637343 8.9252933 5.9217857 C 8.9458339 5.9697137 8.9566603 6.0241264 8.9578196 6.0849752 L 8.9578993 6.085055 L 8.9578993 6.0959768 L 8.9578993 6.1068986 L 8.9578196 6.1069783 C 8.9566638 6.1682267 8.9458379 6.2262246 8.9252933 6.28101 C 8.9107805 6.3318049 8.8853618 6.3789769 8.8490797 6.4225154 C 8.8200541 6.4660539 8.7837986 6.5059747 8.7402601 6.5422568 C 8.6967216 6.5712825 8.6458843 6.5967012 8.5878329 6.6184704 C 8.5398957 6.6321668 8.4855064 6.6393841 8.4246433 6.6401546 L 8.4245636 6.6402343 L 8.4137215 6.6402343 L 8.4027997 6.6402343 L 8.40272 6.6401546 C 8.3414588 6.6393864 8.2834841 6.6321694 8.2286883 6.6184704 C 8.1778934 6.5967012 8.1307214 6.5712825 8.0871829 6.5422568 C 8.0436444 6.5059747 8.0037236 6.4660539 7.9674415 6.4225154 C 7.9384158 6.3789769 7.9129971 6.3318049 7.8912279 6.28101 C 7.877535 6.2262385 7.8703173 6.1682095 7.8695437 6.1069783 L 7.8695437 6.1068986 L 7.869464 6.1068986 L 7.8693842 6.1069783 C 7.8682284 6.1682267 7.8573227 6.2262246 7.8367782 6.28101 C 7.8222654 6.3318049 7.7969264 6.3789769 7.7606443 6.4225154 C 7.7316187 6.4660539 7.6952835 6.5059747 7.651745 6.5422568 C 7.6082065 6.5712825 7.5574489 6.5967012 7.4993975 6.6184704 C 7.4514603 6.6321668 7.397071 6.6393841 7.3362079 6.6401546 L 7.3361282 6.6402343 L 7.3362079 6.6403141 C 7.397071 6.6410846 7.4514603 6.6483019 7.4993975 6.6619983 C 7.5574489 6.6837675 7.6082065 6.7091065 7.651745 6.7381321 C 7.6952835 6.7744142 7.7316187 6.8143351 7.7606443 6.8578736 C 7.7969264 6.9014121 7.8222654 6.948584 7.8367782 6.999379 C 7.8573227 7.0541644 7.8682284 7.112242 7.8693842 7.1734904 L 7.869464 7.1735701 L 7.869464 7.1844122 L 7.869464 7.195334 L 7.8693842 7.1954137 C 7.8682249 7.2562626 7.8573188 7.3106753 7.8367782 7.3586033 C 7.8222654 7.4166546 7.7969264 7.4674123 7.7606443 7.5109508 C 7.7316187 7.5544893 7.6952835 7.5908244 7.651745 7.6198501 C 7.6082065 7.6561322 7.5574489 7.6814712 7.4993975 7.695984 C 7.4514695 7.7165246 7.3970568 7.7274307 7.3362079 7.72859 L 7.3361282 7.7286697 L 7.3252064 7.7286697 L 7.3143643 7.7286697 L 7.3142846 7.72859 L 7.3142049 7.72859 C 7.2529565 7.7274342 7.1949586 7.7165285 7.1401732 7.695984 C 7.0893783 7.6814712 7.0422063 7.6561322 6.9986678 7.6198501 C 6.9551293 7.5908244 6.9152085 7.5544893 6.8789264 7.5109508 C 6.8499007 7.4674123 6.8245617 7.4166546 6.8027925 7.3586033 C 6.7890961 7.310666 6.7817991 7.2562768 6.7810286 7.1954137 L 6.7810286 7.195334 L 6.7808691 7.1954137 C 6.7797017 7.2562296 6.7688742 7.3106967 6.7483428 7.3586033 C 6.73383 7.4166546 6.7084113 7.4674123 6.6721292 7.5109508 C 6.6431035 7.5544893 6.6068481 7.5908244 6.5633096 7.6198501 C 6.5197711 7.6561322 6.4689337 7.6814712 6.4108824 7.695984 C 6.3629544 7.7165246 6.3086214 7.7274307 6.2477726 7.72859 L 6.2476928 7.72859 L 6.2476131 7.7286697 L 6.236771 7.7286697 L 6.2258492 7.7286697 L 6.2257695 7.72859 C 6.1645211 7.7274342 6.1065232 7.7165285 6.0517378 7.695984 C 6.0009429 7.6814712 5.9537709 7.6561322 5.9102324 7.6198501 C 5.8666939 7.5908244 5.8267731 7.5544893 5.790491 7.5109508 C 5.7614653 7.4674123 5.7360466 7.4166546 5.7142774 7.3586033 C 5.700581 7.310666 5.6933637 7.2562768 5.6925932 7.1954137 L 5.6925135 7.195334 L 5.6924337 7.1954137 C 5.6912744 7.2562626 5.680448 7.3106753 5.6599074 7.3586033 C 5.6453946 7.4166546 5.6199759 7.4674123 5.5836938 7.5109508 C 5.5546682 7.5544893 5.5184127 7.5908244 5.4748742 7.6198501 C 5.4313357 7.6561322 5.3804984 7.6814712 5.322447 7.695984 C 5.274519 7.7165246 5.2201063 7.7274307 5.1592574 7.72859 L 5.1591777 7.7286697 L 5.1483356 7.7286697 L 5.1374138 7.7286697 L 5.1373341 7.72859 C 5.0760857 7.7274342 5.0180081 7.7165285 4.9632227 7.695984 C 4.9124277 7.6814712 4.8653355 7.6561322 4.821797 7.6198501 C 4.7782585 7.5908244 4.7383377 7.5544893 4.7020556 7.5109508 C 4.6730299 7.4674123 4.6476112 7.4166546 4.625842 7.3586033 C 4.6121456 7.310666 4.6049283 7.2562768 4.6041578 7.1954137 L 4.6040781 7.195334 L 4.6039983 7.1954137 C 4.602839 7.2562626 4.5919329 7.3106753 4.5713923 7.3586033 C 4.5568795 7.4166546 4.5315405 7.4674123 4.4952584 7.5109508 C 4.4662328 7.5544893 4.4298976 7.5908244 4.3863591 7.6198501 C 4.3428206 7.6561322 4.292063 7.6814712 4.2340116 7.695984 C 4.1860836 7.7165246 4.1316709 7.7274307 4.070822 7.72859 L 4.0707423 7.7286697 L 4.0598205 7.7286697 L 4.0489784 7.7286697 L 4.0488987 7.72859 C 3.9876503 7.7274342 3.9295727 7.7165285 3.8747873 7.695984 C 3.8239924 7.6814712 3.7768204 7.6561322 3.7332819 7.6198501 C 3.6897434 7.5908244 3.6498226 7.5544893 3.6135405 7.5109508 C 3.5845148 7.4674123 3.5591758 7.4166546 3.5374066 7.3586033 C 3.5237102 7.310666 3.5164132 7.2562768 3.5156427 7.1954137 L 3.5156427 7.195334 L 3.5156427 7.1844122 L 3.5156427 7.1735701 L 3.5156427 7.1734904 C 3.5164109 7.1122292 3.5237076 7.0541748 3.5374066 6.999379 C 3.5591758 6.948584 3.5845148 6.9014121 3.6135405 6.8578736 C 3.6498226 6.8143351 3.6897434 6.7744142 3.7332819 6.7381321 C 3.7768204 6.7091065 3.8239924 6.6837675 3.8747873 6.6619983 C 3.9295831 6.6482993 3.9876375 6.6410823 4.0488987 6.6403141 L 4.0489784 6.6402343 L 4.0598205 6.6402343 L 4.0707423 6.6402343 L 4.070822 6.6403141 C 4.1316851 6.6410846 4.1860744 6.6483019 4.2340116 6.6619983 C 4.292063 6.6837675 4.3428206 6.7091065 4.3863591 6.7381321 C 4.4298976 6.7744142 4.4662328 6.8143351 4.4952584 6.8578736 C 4.5315405 6.9014121 4.5568795 6.948584 4.5713923 6.999379 C 4.5919368 7.0541644 4.6028425 7.112242 4.6039983 7.1734904 L 4.6040781 7.1735701 L 4.6041578 7.1734904 C 4.604926 7.1122292 4.612143 7.0541748 4.625842 6.999379 C 4.6476112 6.948584 4.6730299 6.9014121 4.7020556 6.8578736 C 4.7383377 6.8143351 4.7782585 6.7744142 4.821797 6.7381321 C 4.8653355 6.7091065 4.9124277 6.6837675 4.9632227 6.6619983 C 5.0180185 6.6482993 5.0760729 6.6410823 5.1373341 6.6403141 L 5.1374138 6.6402343 L 5.1483356 6.6402343 L 5.1591777 6.6402343 L 5.1592574 6.6403141 C 5.2201205 6.6410846 5.2745098 6.6483019 5.322447 6.6619983 C 5.3804984 6.6837675 5.4313357 6.7091065 5.4748742 6.7381321 C 5.5184127 6.7744142 5.5546682 6.8143351 5.5836938 6.8578736 C 5.6199759 6.9014121 5.6453946 6.948584 5.6599074 6.999379 C 5.680452 7.0541644 5.6912779 7.112242 5.6924337 7.1734904 L 5.6925135 7.1735701 L 5.6925932 7.1734904 C 5.6933614 7.1122292 5.7005784 7.0541748 5.7142774 6.999379 C 5.7360466 6.948584 5.7614653 6.9014121 5.790491 6.8578736 C 5.8267731 6.8143351 5.8666939 6.7744142 5.9102324 6.7381321 C 5.9537709 6.7091065 6.0009429 6.6837675 6.0517378 6.6619983 C 6.1065093 6.6483054 6.1645383 6.6410877 6.2257695 6.6403141 L 6.2258492 6.6403141 L 6.2258492 6.6402343 L 6.236771 6.6402343 L 6.2476131 6.6402343 L 6.2476928 6.6403141 C 6.3085559 6.6410846 6.3629451 6.6483019 6.4108824 6.6619983 C 6.4689337 6.6837675 6.5197711 6.7091065 6.5633096 6.7381321 C 6.6068481 6.7744142 6.6431035 6.8143351 6.6721292 6.8578736 C 6.7084113 6.9014121 6.73383 6.948584 6.7483428 6.999379 C 6.7688784 7.0541404 6.7797053 7.1121919 6.7808691 7.1734106 L 6.7808691 7.1734904 L 6.7810286 7.1734904 C 6.7817968 7.1122292 6.7890935 7.0541748 6.8027925 6.999379 C 6.8245617 6.948584 6.8499007 6.9014121 6.8789264 6.8578736 C 6.9152085 6.8143351 6.9551293 6.7744142 6.9986678 6.7381321 C 7.0422063 6.7091065 7.0893783 6.6837675 7.1401732 6.6619983 C 7.194969 6.6482993 7.2530234 6.6410823 7.3142846 6.6403141 L 7.3143643 6.6402343 L 7.3142846 6.6401546 C 7.2530234 6.6393864 7.194969 6.6321694 7.1401732 6.6184704 C 7.0893783 6.5967012 7.0422063 6.5712825 6.9986678 6.5422568 C 6.9551293 6.5059747 6.9152085 6.4660539 6.8789264 6.4225154 C 6.8499007 6.3789769 6.8245617 6.3318049 6.8027925 6.28101 C 6.7890935 6.2262142 6.7817968 6.1681598 6.7810286 6.1068986 L 6.7810286 6.0959768 C 6.7810286 6.030669 6.7882797 5.9725806 6.8027925 5.9217857 C 6.8245617 5.8637343 6.8499007 5.8129767 6.8789264 5.7694382 C 6.9152085 5.7258997 6.9551293 5.6896443 6.9986678 5.6606186 C 7.0422063 5.6243365 7.0893783 5.5989178 7.1401732 5.584405 C 7.1949586 5.5638604 7.2529565 5.5530345 7.3142049 5.5518787 L 7.3143643 5.5517192 L 7.3142846 5.5516395 C 7.2530234 5.5508713 7.194969 5.5436543 7.1401732 5.5299553 C 7.0893783 5.5081861 7.0422063 5.4828471 6.9986678 5.4538214 C 6.9551293 5.4175393 6.9152085 5.3776185 6.8789264 5.33408 C 6.8499007 5.2905415 6.8245617 5.2433695 6.8027925 5.1925746 C 6.7890935 5.1377788 6.7817968 5.0797244 6.7810286 5.0184632 L 6.7808691 5.0185429 C 6.7797133 5.0797913 6.7688874 5.1377892 6.7483428 5.1925746 C 6.73383 5.2433695 6.7084113 5.2905415 6.6721292 5.33408 C 6.6431035 5.3776185 6.6068481 5.4175393 6.5633096 5.4538214 C 6.5197711 5.4828471 6.4689337 5.5081861 6.4108824 5.5299553 C 6.3629451 5.5436517 6.3085559 5.550869 6.2476928 5.5516395 L 6.2476131 5.5517192 L 6.236771 5.5517192 L 6.2258492 5.5517192 L 6.2258492 5.5516395 C 6.164618 5.5508659 6.1065093 5.5436482 6.0517378 5.5299553 C 6.0009429 5.5081861 5.9537709 5.4828471 5.9102324 5.4538214 C 5.8666939 5.4175393 5.8267731 5.3776185 5.790491 5.33408 C 5.7614653 5.2905415 5.7360466 5.2433695 5.7142774 5.1925746 C 5.7005784 5.1377788 5.6933614 5.0797244 5.6925932 5.0184632 L 5.6925135 5.0183835 L 5.6924337 5.0184632 C 5.6912779 5.0797116 5.680452 5.1377892 5.6599074 5.1925746 C 5.6453946 5.2433695 5.6199759 5.2905415 5.5836938 5.33408 C 5.5546682 5.3776185 5.5184127 5.4175393 5.4748742 5.4538214 C 5.4313357 5.4828471 5.3804984 5.5081861 5.322447 5.5299553 C 5.2745098 5.5436517 5.2201205 5.550869 5.1592574 5.5516395 L 5.1591777 5.5517192 L 5.1483356 5.5517192 L 5.1374138 5.5517192 L 5.1373341 5.5516395 C 5.0760729 5.5508713 5.0180185 5.5436543 4.9632227 5.5299553 C 4.9124277 5.5081861 4.8653355 5.4828471 4.821797 5.4538214 C 4.7782585 5.4175393 4.7383377 5.3776185 4.7020556 5.33408 C 4.6730299 5.2905415 4.6476112 5.2433695 4.625842 5.1925746 C 4.612143 5.1377788 4.604926 5.0797244 4.6041578 5.0184632 L 4.6040781 5.0183835 L 4.6040781 5.0075414 L 4.6040781 4.9966196 L 4.6041578 4.9965399 C 4.6049283 4.9356768 4.6121456 4.8812875 4.625842 4.8333503 C 4.6476112 4.7752989 4.6730299 4.7245413 4.7020556 4.6810028 C 4.7383377 4.6374643 4.7782585 4.6011291 4.821797 4.5721035 C 4.8653355 4.5358214 4.9124277 4.5104824 4.9632227 4.4959696 C 5.0180081 4.4754251 5.0760857 4.4645194 5.1373341 4.4633636 L 5.1374138 4.4632838 L 5.1373341 4.4632041 C 5.0760729 4.4624359 5.0180185 4.4552189 4.9632227 4.4415199 C 4.9124277 4.4197507 4.8653355 4.394332 4.821797 4.3653063 C 4.7782585 4.3290242 4.7383377 4.2891034 4.7020556 4.2455649 C 4.6730299 4.2020264 4.6476112 4.1548544 4.625842 4.1040595 C 4.612143 4.0492637 4.604926 3.991289 4.6041578 3.9300278 L 4.6040781 3.9299481 L 4.6039983 3.9300278 C 4.6028425 3.9912762 4.5919368 4.0492741 4.5713923 4.1040595 C 4.5568795 4.1548544 4.5315405 4.2020264 4.4952584 4.2455649 C 4.4662328 4.2891034 4.4298976 4.3290242 4.3863591 4.3653063 C 4.3428206 4.394332 4.292063 4.4197507 4.2340116 4.4415199 C 4.1860744 4.4552163 4.1316851 4.4624336 4.070822 4.4632041 L 4.0707423 4.4632838 L 4.0598205 4.4632838 L 4.0489784 4.4632838 L 4.0488987 4.4632041 C 3.9876375 4.4624359 3.9295831 4.4552189 3.8747873 4.4415199 C 3.8239924 4.4197507 3.7768204 4.394332 3.7332819 4.3653063 C 3.6897434 4.3290242 3.6498226 4.2891034 3.6135405 4.2455649 C 3.5845148 4.2020264 3.5591758 4.1548544 3.5374066 4.1040595 C 3.5237076 4.0492637 3.5164109 3.991289 3.5156427 3.9300278 L 3.5156427 3.9299481 L 3.5156427 3.9190263 L 3.5156427 3.9081842 L 3.5156427 3.9081045 C 3.5164132 3.8472414 3.5237102 3.7928521 3.5374066 3.7449149 C 3.5591758 3.6868635 3.5845148 3.6360262 3.6135405 3.5924877 C 3.6498226 3.5489492 3.6897434 3.5126937 3.7332819 3.4836681 C 3.7768204 3.447386 3.8239924 3.4219673 3.8747873 3.4074545 C 3.9295727 3.3869099 3.9875706 3.376084 4.048819 3.3749282 L 4.0488987 3.3749282 L 4.0489784 3.3748485 L 4.0488987 3.3747687 C 3.9876375 3.3740005 3.9295831 3.3667835 3.8747873 3.3530845 C 3.8239924 3.3313153 3.7768204 3.3058966 3.7332819 3.2768709 C 3.6897434 3.2405888 3.6498226 3.200668 3.6135405 3.1571295 C 3.5845148 3.113591 3.5591758 3.066419 3.5374066 3.0156241 C 3.5228938 2.9575728 3.5156427 2.8958987 3.5156427 2.8305909 C 3.5156427 2.7652831 3.5228938 2.7071947 3.5374066 2.6563998 C 3.5591758 2.5983484 3.5845148 2.5475908 3.6135405 2.5040523 C 3.6498226 2.4605138 3.6897434 2.4242584 3.7332819 2.3952327 C 3.7768204 2.3589506 3.8239924 2.3335319 3.8747873 2.3190191 C 3.9295727 2.2984745 3.9875706 2.2876486 4.048819 2.2864928 L 4.0489784 2.2863333 L 4.0598205 2.2863333 L 4.0707423 2.2863333 L 4.070822 2.2864928 L 4.0709018 2.2864928 C 4.1317177 2.2876602 4.186105 2.2984877 4.2340116 2.3190191 C 4.292063 2.3335319 4.3428206 2.3589506 4.3863591 2.3952327 C 4.4298976 2.4242584 4.4662328 2.4605138 4.4952584 2.5040523 C 4.5315405 2.5475908 4.5568795 2.5983484 4.5713923 2.6563998 C 4.5919329 2.7043278 4.602839 2.7587405 4.6039983 2.8195894 L 4.6040781 2.8196691 L 4.6040781 2.8305909 L 4.6040781 2.8415127 L 4.6039983 2.8415924 C 4.6028425 2.9028408 4.5919368 2.9608387 4.5713923 3.0156241 C 4.5568795 3.066419 4.5315405 3.113591 4.4952584 3.1571295 C 4.4662328 3.200668 4.4298976 3.2405888 4.3863591 3.2768709 C 4.3428206 3.3058966 4.292063 3.3313153 4.2340116 3.3530845 C 4.1860744 3.3667809 4.1316851 3.3739982 4.070822 3.3747687 L 4.0707423 3.3748485 L 4.070822 3.3749282 C 4.1316709 3.3760875 4.1860836 3.3869139 4.2340116 3.4074545 C 4.292063 3.4219673 4.3428206 3.447386 4.3863591 3.4836681 C 4.4298976 3.5126937 4.4662328 3.5489492 4.4952584 3.5924877 C 4.5315405 3.6360262 4.5568795 3.6868635 4.5713923 3.7449149 C 4.5919329 3.7928429 4.602839 3.8472556 4.6039983 3.9081045 L 4.6040781 3.9081842 L 4.6041578 3.9081045 C 4.6049283 3.8472414 4.6121456 3.7928521 4.625842 3.7449149 C 4.6476112 3.6868635 4.6730299 3.6360262 4.7020556 3.5924877 C 4.7383377 3.5489492 4.7782585 3.5126937 4.821797 3.4836681 C 4.8653355 3.447386 4.9124277 3.4219673 4.9632227 3.4074545 C 5.0180081 3.3869099 5.0760857 3.376084 5.1373341 3.3749282 L 5.1374138 3.3748485 L 5.1483356 3.3748485 L 5.1591777 3.3748485 L 5.1592574 3.3749282 C 5.2201063 3.3760875 5.274519 3.3869139 5.322447 3.4074545 C 5.3804984 3.4219673 5.4313357 3.447386 5.4748742 3.4836681 C 5.5184127 3.5126937 5.5546682 3.5489492 5.5836938 3.5924877 C 5.6199759 3.6360262 5.6453946 3.6868635 5.6599074 3.7449149 C 5.680448 3.7928429 5.6912744 3.8472556 5.6924337 3.9081045 L 5.6925135 3.9081842 L 5.6925135 3.9190263 L 5.6925135 3.9299481 L 5.6924337 3.9300278 C 5.6912779 3.9912762 5.680452 4.0492741 5.6599074 4.1040595 C 5.6453946 4.1548544 5.6199759 4.2020264 5.5836938 4.2455649 C 5.5546682 4.2891034 5.5184127 4.3290242 5.4748742 4.3653063 C 5.4313357 4.394332 5.3804984 4.4197507 5.322447 4.4415199 C 5.2745098 4.4552163 5.2201205 4.4624336 5.1592574 4.4632041 L 5.1591777 4.4632838 L 5.1592574 4.4633636 C 5.2201063 4.4645229 5.274519 4.475429 5.322447 4.4959696 C 5.3804984 4.5104824 5.4313357 4.5358214 5.4748742 4.5721035 C 5.5184127 4.6011291 5.5546682 4.6374643 5.5836938 4.6810028 C 5.6199759 4.7245413 5.6453946 4.7752989 5.6599074 4.8333503 C 5.680448 4.8812783 5.6912744 4.935691 5.6924337 4.9965399 L 5.6925135 4.9966196 L 5.6925932 4.9965399 C 5.6933637 4.9356768 5.700581 4.8812875 5.7142774 4.8333503 C 5.7360466 4.7752989 5.7614653 4.7245413 5.790491 4.6810028 C 5.8267731 4.6374643 5.8666939 4.6011291 5.9102324 4.5721035 C 5.9537709 4.5358214 6.0009429 4.5104824 6.0517378 4.4959696 C 6.1065232 4.4754251 6.1645211 4.4645194 6.2257695 4.4633636 L 6.2258492 4.4632838 L 6.236771 4.4632838 L 6.2476131 4.4632838 L 6.2476928 4.4633636 C 6.3085417 4.4645229 6.3629544 4.475429 6.4108824 4.4959696 C 6.4689337 4.5104824 6.5197711 4.5358214 6.5633096 4.5721035 C 6.6068481 4.6011291 6.6431035 4.6374643 6.6721292 4.6810028 C 6.7084113 4.7245413 6.73383 4.7752989 6.7483428 4.8333503 C 6.7688742 4.8812569 6.7797017 4.9356442 6.7808691 4.9964601 L 6.7808691 4.9965399 L 6.7810286 4.9966196 C 6.7817991 4.9357565 6.7890961 4.8812875 6.8027925 4.8333503 C 6.8245617 4.7752989 6.8499007 4.7245413 6.8789264 4.6810028 C 6.9152085 4.6374643 6.9551293 4.6011291 6.9986678 4.5721035 C 7.0422063 4.5358214 7.0893783 4.5104824 7.1401732 4.4959696 C 7.1949586 4.4754251 7.2529565 4.4645194 7.3142049 4.4633636 L 7.3142846 4.4633636 L 7.3143643 4.4632838 L 7.3142846 4.4632041 C 7.2530234 4.4624359 7.194969 4.4552189 7.1401732 4.4415199 C 7.0893783 4.4197507 7.0422063 4.394332 6.9986678 4.3653063 C 6.9551293 4.3290242 6.9152085 4.2891034 6.8789264 4.2455649 C 6.8499007 4.2020264 6.8245617 4.1548544 6.8027925 4.1040595 C 6.7890935 4.0492637 6.7817968 3.991289 6.7810286 3.9300278 L 6.7810286 3.9299481 L 6.7810286 3.9190263 C 6.7810286 3.915379 6.7809833 3.9117862 6.7810286 3.9081842 C 6.7817991 3.8473211 6.7890961 3.7928521 6.8027925 3.7449149 C 6.8245617 3.6868635 6.8499007 3.6360262 6.8789264 3.5924877 C 6.9152085 3.5489492 6.9551293 3.5126937 6.9986678 3.4836681 C 7.0422063 3.447386 7.0893783 3.4219673 7.1401732 3.4074545 C 7.1949586 3.3869099 7.2529565 3.376084 7.3142049 3.3749282 L 7.3142846 3.3749282 L 7.3143643 3.3748485 L 7.3142846 3.3747687 C 7.2530234 3.3740005 7.194969 3.3667835 7.1401732 3.3530845 C 7.0893783 3.3313153 7.0422063 3.3058966 6.9986678 3.2768709 C 6.9551293 3.2405888 6.9152085 3.200668 6.8789264 3.1571295 C 6.8499007 3.113591 6.8245617 3.066419 6.8027925 3.0156241 C 6.7882797 2.9575728 6.7810286 2.8958987 6.7810286 2.8305909 L 6.7810286 2.8196691 C 6.7817991 2.758806 6.7890961 2.704337 6.8027925 2.6563998 C 6.8245617 2.5983484 6.8499007 2.5475908 6.8789264 2.5040523 C 6.9152085 2.4605138 6.9551293 2.4242584 6.9986678 2.3952327 C 7.0422063 2.3589506 7.0893783 2.3335319 7.1401732 2.3190191 C 7.1949586 2.2984745 7.2529565 2.2876486 7.3142049 2.2864928 L 7.3143643 2.2863333 L 7.3142846 2.2862536 C 7.2530234 2.2854854 7.194969 2.2782684 7.1401732 2.2645694 C 7.0893783 2.2428002 7.0422063 2.2174612 6.9986678 2.1884355 C 6.9551293 2.1521534 6.9152085 2.1122326 6.8789264 2.0686941 C 6.8499007 2.0251556 6.8245617 1.9779836 6.8027925 1.9271887 C 6.7890935 1.8723929 6.7817968 1.8143385 6.7810286 1.7530773 L 6.7808691 1.7530773 C 6.7797053 1.814296 6.7688784 1.8724273 6.7483428 1.9271887 C 6.73383 1.9779836 6.7084113 2.0251556 6.6721292 2.0686941 C 6.6431035 2.1122326 6.6068481 2.1521534 6.5633096 2.1884355 C 6.5197711 2.2174612 6.4689337 2.2428002 6.4108824 2.2645694 C 6.3629451 2.2782658 6.3085559 2.2854831 6.2476928 2.2862536 L 6.2476131 2.2863333 L 6.236771 2.2863333 L 6.2258492 2.2863333 L 6.2258492 2.2862536 C 6.164618 2.28548 6.1065093 2.2782623 6.0517378 2.2645694 C 6.0009429 2.2428002 5.9537709 2.2174612 5.9102324 2.1884355 C 5.8666939 2.1521534 5.8267731 2.1122326 5.790491 2.0686941 C 5.7614653 2.0251556 5.7360466 1.9779836 5.7142774 1.9271887 C 5.7005784 1.8723929 5.6933614 1.8143385 5.6925932 1.7530773 L 5.6925135 1.7529976 L 5.6924337 1.7530773 C 5.6912779 1.8143257 5.680452 1.8724033 5.6599074 1.9271887 C 5.6453946 1.9779836 5.6199759 2.0251556 5.5836938 2.0686941 C 5.5546682 2.1122326 5.5184127 2.1521534 5.4748742 2.1884355 C 5.4313357 2.2174612 5.3804984 2.2428002 5.322447 2.2645694 C 5.2745098 2.2782658 5.2201205 2.2854831 5.1592574 2.2862536 L 5.1591777 2.2863333 L 5.1483356 2.2863333 L 5.1374138 2.2863333 L 5.1373341 2.2862536 C 5.0760729 2.2854854 5.0180185 2.2782684 4.9632227 2.2645694 C 4.9124277 2.2428002 4.8653355 2.2174612 4.821797 2.1884355 C 4.7782585 2.1521534 4.7383377 2.1122326 4.7020556 2.0686941 C 4.6730299 2.0251556 4.6476112 1.9779836 4.625842 1.9271887 C 4.612143 1.8723929 4.604926 1.8143385 4.6041578 1.7530773 L 4.6040781 1.7529976 L 4.6040781 1.7421555 L 4.6040781 1.7312337 L 4.6041578 1.731154 C 4.6049283 1.6702909 4.6121456 1.6159016 4.625842 1.5679644 C 4.6476112 1.509913 4.6730299 1.4591554 4.7020556 1.4156169 C 4.7383377 1.3720784 4.7782585 1.3357432 4.821797 1.3067176 C 4.8653355 1.2704355 4.9124277 1.2450965 4.9632227 1.2305837 C 5.0180081 1.2100392 5.0760857 1.1991335 5.1373341 1.1979777 L 5.1374138 1.1978979 z M 7.869464 1.7529976 L 7.8693842 1.7530773 C 7.8682284 1.8143257 7.8573227 1.8724033 7.8367782 1.9271887 C 7.8222654 1.9779836 7.7969264 2.0251556 7.7606443 2.0686941 C 7.7316187 2.1122326 7.6952835 2.1521534 7.651745 2.1884355 C 7.6082065 2.2174612 7.5574489 2.2428002 7.4993975 2.2645694 C 7.4514603 2.2782658 7.397071 2.2854831 7.3362079 2.2862536 L 7.3361282 2.2863333 L 7.3362079 2.2864928 L 7.3362877 2.2864928 C 7.3971036 2.2876602 7.4514909 2.2984877 7.4993975 2.3190191 C 7.5574489 2.3335319 7.6082065 2.3589506 7.651745 2.3952327 C 7.6952835 2.4242584 7.7316187 2.4605138 7.7606443 2.5040523 C 7.7969264 2.5475908 7.8222654 2.5983484 7.8367782 2.6563998 C 7.8573188 2.7043278 7.8682249 2.7587405 7.8693842 2.8195894 L 7.869464 2.8196691 L 7.8695437 2.8196691 L 7.8695437 2.8195894 C 7.8703198 2.7587601 7.8775378 2.704315 7.8912279 2.6563998 C 7.9129971 2.5983484 7.9384158 2.5475908 7.9674415 2.5040523 C 8.0037236 2.4605138 8.0436444 2.4242584 8.0871829 2.3952327 C 8.1307214 2.3589506 8.1778934 2.3335319 8.2286883 2.3190191 C 8.2834497 2.2984835 8.3414215 2.2876566 8.4026402 2.2864928 L 8.40272 2.2864928 L 8.4027997 2.2863333 L 8.40272 2.2862536 C 8.3414588 2.2854854 8.2834841 2.2782684 8.2286883 2.2645694 C 8.1778934 2.2428002 8.1307214 2.2174612 8.0871829 2.1884355 C 8.0436444 2.1521534 8.0037236 2.1122326 7.9674415 2.0686941 C 7.9384158 2.0251556 7.9129971 1.9779836 7.8912279 1.9271887 C 7.8775289 1.8723929 7.8703119 1.8143385 7.8695437 1.7530773 L 7.869464 1.7529976 z M 7.869464 2.8415127 L 7.8693842 2.8415924 C 7.8682284 2.9028408 7.8573227 2.9608387 7.8367782 3.0156241 C 7.8222654 3.066419 7.7969264 3.113591 7.7606443 3.1571295 C 7.7316187 3.200668 7.6952835 3.2405888 7.651745 3.2768709 C 7.6082065 3.3058966 7.5574489 3.3313153 7.4993975 3.3530845 C 7.4514603 3.3667809 7.397071 3.3739982 7.3362079 3.3747687 L 7.3361282 3.3748485 L 7.3362079 3.3749282 C 7.3970568 3.3760875 7.4514695 3.3869139 7.4993975 3.4074545 C 7.5574489 3.4219673 7.6082065 3.447386 7.651745 3.4836681 C 7.6952835 3.5126937 7.7316187 3.5489492 7.7606443 3.5924877 C 7.7969264 3.6360262 7.8222654 3.6868635 7.8367782 3.7449149 C 7.8573188 3.7928429 7.8682249 3.8472556 7.8693842 3.9081045 L 7.869464 3.9081842 L 7.8695437 3.9081045 C 7.8703142 3.8472414 7.8775315 3.7928521 7.8912279 3.7449149 C 7.9129971 3.6868635 7.9384158 3.6360262 7.9674415 3.5924877 C 8.0037236 3.5489492 8.0436444 3.5126937 8.0871829 3.4836681 C 8.1307214 3.447386 8.1778934 3.4219673 8.2286883 3.4074545 C 8.2834737 3.3869099 8.3414716 3.376084 8.40272 3.3749282 L 8.4027997 3.3748485 L 8.40272 3.3747687 C 8.3414588 3.3740005 8.2834841 3.3667835 8.2286883 3.3530845 C 8.1778934 3.3313153 8.1307214 3.3058966 8.0871829 3.2768709 C 8.0436444 3.2405888 8.0037236 3.200668 7.9674415 3.1571295 C 7.9384158 3.113591 7.9129971 3.066419 7.8912279 3.0156241 C 7.877535 2.9608526 7.8703173 2.9028236 7.8695437 2.8415924 L 7.8695437 2.8415127 L 7.869464 2.8415127 z M 7.869464 3.9299481 L 7.8693842 3.9300278 C 7.8682284 3.9912762 7.8573227 4.0492741 7.8367782 4.1040595 C 7.8222654 4.1548544 7.7969264 4.2020264 7.7606443 4.2455649 C 7.7316187 4.2891034 7.6952835 4.3290242 7.651745 4.3653063 C 7.6082065 4.394332 7.5574489 4.4197507 7.4993975 4.4415199 C 7.4514603 4.4552163 7.397071 4.4624336 7.3362079 4.4632041 L 7.3361282 4.4632838 L 7.3362079 4.4633636 C 7.3970568 4.4645229 7.4514695 4.475429 7.4993975 4.4959696 C 7.5574489 4.5104824 7.6082065 4.5358214 7.651745 4.5721035 C 7.6952835 4.6011291 7.7316187 4.6374643 7.7606443 4.6810028 C 7.7969264 4.7245413 7.8222654 4.7752989 7.8367782 4.8333503 C 7.8573188 4.8812783 7.8682249 4.935691 7.8693842 4.9965399 L 7.869464 4.9966196 L 7.8695437 4.9965399 C 7.8703142 4.9356768 7.8775315 4.8812875 7.8912279 4.8333503 C 7.9129971 4.7752989 7.9384158 4.7245413 7.9674415 4.6810028 C 8.0037236 4.6374643 8.0436444 4.6011291 8.0871829 4.5721035 C 8.1307214 4.5358214 8.1778934 4.5104824 8.2286883 4.4959696 C 8.2834737 4.4754251 8.3414716 4.4645194 8.40272 4.4633636 L 8.4027997 4.4632838 L 8.40272 4.4632041 C 8.3414588 4.4624359 8.2834841 4.4552189 8.2286883 4.4415199 C 8.1778934 4.4197507 8.1307214 4.394332 8.0871829 4.3653063 C 8.0436444 4.3290242 8.0037236 4.2891034 7.9674415 4.2455649 C 7.9384158 4.2020264 7.9129971 4.1548544 7.8912279 4.1040595 C 7.8775289 4.0492637 7.8703119 3.991289 7.8695437 3.9300278 L 7.869464 3.9299481 z M 7.869464 5.0183835 L 7.8693842 5.0184632 C 7.8682284 5.0797116 7.8573227 5.1377892 7.8367782 5.1925746 C 7.8222654 5.2433695 7.7969264 5.2905415 7.7606443 5.33408 C 7.7316187 5.3776185 7.6952835 5.4175393 7.651745 5.4538214 C 7.6082065 5.4828471 7.5574489 5.5081861 7.4993975 5.5299553 C 7.4514603 5.5436517 7.397071 5.550869 7.3362079 5.5516395 L 7.3361282 5.5517192 L 7.3362079 5.5518787 L 7.3362877 5.5518787 C 7.3971036 5.5530461 7.4514909 5.5638736 7.4993975 5.584405 C 7.5574489 5.5989178 7.6082065 5.6243365 7.651745 5.6606186 C 7.6952835 5.6896443 7.7316187 5.7258997 7.7606443 5.7694382 C 7.7969264 5.8129767 7.8222654 5.8637343 7.8367782 5.9217857 C 7.8573188 5.9697137 7.8682249 6.0241264 7.8693842 6.0849752 L 7.869464 6.085055 L 7.8695437 6.085055 L 7.8695437 6.0849752 C 7.8703198 6.024146 7.8775378 5.9697009 7.8912279 5.9217857 C 7.9129971 5.8637343 7.9384158 5.8129767 7.9674415 5.7694382 C 8.0037236 5.7258997 8.0436444 5.6896443 8.0871829 5.6606186 C 8.1307214 5.6243365 8.1778934 5.5989178 8.2286883 5.584405 C 8.2834497 5.5638694 8.3414215 5.5530425 8.4026402 5.5518787 L 8.40272 5.5518787 L 8.4027997 5.5517192 L 8.40272 5.5516395 C 8.3414588 5.5508713 8.2834841 5.5436543 8.2286883 5.5299553 C 8.1778934 5.5081861 8.1307214 5.4828471 8.0871829 5.4538214 C 8.0436444 5.4175393 8.0037236 5.3776185 7.9674415 5.33408 C 7.9384158 5.2905415 7.9129971 5.2433695 7.8912279 5.1925746 C 7.8775289 5.1377788 7.8703119 5.0797244 7.8695437 5.0184632 L 7.869464 5.0183835 z "
     transform="matrix(6.4821333,0,0,6.4821333,9.5724678,21.068448)"
     inkscape:label="logo" />
</svg>
